<?xml version="1.0" encoding="UTF-8" standalone="no"?>
<svg width="40px" height="40px" viewBox="0 0 40 40" version="1.1" xmlns="http://www.w3.org/2000/svg" xmlns:xlink="http://www.w3.org/1999/xlink" xmlns:sketch="http://www.bohemiancoding.com/sketch/ns">
    <!-- Generator: Sketch 3.2.1 (9971) - http://www.bohemiancoding.com/sketch -->
    <title>icon-category</title>
    <desc>Created with Sketch.</desc>
    <defs></defs>
    <g id="Galaxy-Homepage-Redesign" stroke="none" stroke-width="1" fill="none" fill-rule="evenodd" sketch:type="MSPage">
        <g id="Showcase" sketch:type="MSArtboardGroup" transform="translate(-64.000000, -370.000000)" fill="#4A4A4A">
            <g id="icon-category" sketch:type="MSLayerGroup" transform="translate(64.000000, 370.000000)">
                <path d="M5.2173913,29.5652174 C2.33652174,29.5652174 0,31.9008696 0,34.7817391 C0,37.6634783 2.33652174,39.9991304 5.2173913,39.9991304 C8.09826087,39.9991304 10.4347826,37.6634783 10.4347826,34.7817391 C10.4347826,31.9008696 8.09826087,29.5652174 5.2173913,29.5652174" id="Fill-89" sketch:type="MSShapeGroup"></path>
                <path d="M5.2173913,0 C2.33652174,0 0,2.33565217 0,5.21652174 C0,8.09826087 2.33652174,10.433913 5.2173913,10.433913 C8.09826087,10.433913 10.4347826,8.09826087 10.4347826,5.21652174 C10.4347826,2.33565217 8.09826087,0 5.2173913,0" id="Fill-90" sketch:type="MSShapeGroup"></path>
                <path d="M5.2173913,13.9130435 C2.33652174,13.9130435 0,16.2486957 0,19.1295652 C0,22.0113043 2.33652174,24.3469565 5.2173913,24.3469565 C8.09826087,24.3469565 10.4347826,22.0113043 10.4347826,19.1295652 C10.4347826,16.2486957 8.09826087,13.9130435 5.2173913,13.9130435" id="Fill-91" sketch:type="MSShapeGroup"></path>
                <path d="M20,29.5652174 C17.1191304,29.5652174 14.7826087,31.9008696 14.7826087,34.7817391 C14.7826087,37.6634783 17.1191304,39.9991304 20,39.9991304 C22.8808696,39.9991304 25.2173913,37.6634783 25.2173913,34.7817391 C25.2173913,31.9008696 22.8808696,29.5652174 20,29.5652174" id="Fill-92" sketch:type="MSShapeGroup"></path>
                <path d="M20,0 C17.1191304,0 14.7826087,2.33565217 14.7826087,5.21652174 C14.7826087,8.09826087 17.1191304,10.433913 20,10.433913 C22.8808696,10.433913 25.2173913,8.09826087 25.2173913,5.21652174 C25.2173913,2.33565217 22.8808696,0 20,0" id="Fill-93" sketch:type="MSShapeGroup"></path>
                <path d="M20,13.9130435 C17.1191304,13.9130435 14.7826087,16.2486957 14.7826087,19.1295652 C14.7826087,22.0113043 17.1191304,24.3469565 20,24.3469565 C22.8808696,24.3469565 25.2173913,22.0113043 25.2173913,19.1295652 C25.2173913,16.2486957 22.8808696,13.9130435 20,13.9130435" id="Fill-94" sketch:type="MSShapeGroup"></path>
                <path d="M34.7826087,29.5652174 C31.9017391,29.5652174 29.5652174,31.9008696 29.5652174,34.7817391 C29.5652174,37.6634783 31.9017391,39.9991304 34.7826087,39.9991304 C37.6634783,39.9991304 40,37.6634783 40,34.7817391 C40,31.9008696 37.6634783,29.5652174 34.7826087,29.5652174" id="Fill-95" sketch:type="MSShapeGroup"></path>
                <path d="M34.7826087,10.433913 C37.6634783,10.433913 40,8.09826087 40,5.21652174 C40,2.33565217 37.6634783,0 34.7826087,0 C31.9017391,0 29.5652174,2.33565217 29.5652174,5.21652174 C29.5652174,8.09826087 31.9017391,10.433913 34.7826087,10.433913" id="Fill-96" sketch:type="MSShapeGroup"></path>
                <path d="M34.7826087,13.9130435 C31.9017391,13.9130435 29.5652174,16.2486957 29.5652174,19.1295652 C29.5652174,22.0113043 31.9017391,24.3469565 34.7826087,24.3469565 C37.6634783,24.3469565 40,22.0113043 40,19.1295652 C40,16.2486957 37.6634783,13.9130435 34.7826087,13.9130435" id="Fill-97" sketch:type="MSShapeGroup"></path>
            </g>
        </g>
    </g>
</svg>