<?xml version="1.0" encoding="UTF-8" standalone="no"?>
<svg width="41px" height="26px" viewBox="0 0 41 26" version="1.1" xmlns="http://www.w3.org/2000/svg" xmlns:xlink="http://www.w3.org/1999/xlink" xmlns:sketch="http://www.bohemiancoding.com/sketch/ns">
    <!-- Generator: Sketch 3.2.1 (9971) - http://www.bohemiancoding.com/sketch -->
    <title>icon-uploads</title>
    <desc>Created with Sketch.</desc>
    <defs></defs>
    <g id="Galaxy-Homepage-Redesign" stroke="none" stroke-width="1" fill="none" fill-rule="evenodd" sketch:type="MSPage">
        <g id="Showcase" sketch:type="MSArtboardGroup" transform="translate(-75.000000, -2129.000000)" fill="#4A4A4A">
            <path d="M108.295575,2139.52261 C108.295575,2133.71141 103.586197,2129 97.7729646,2129 C93.5856447,2129 89.9821599,2131.45075 88.2870014,2134.99449 C87.5551709,2134.6279 86.730334,2134.41066 85.8539024,2134.41066 C83.1662242,2134.41066 80.940183,2136.36583 80.5057011,2138.93199 C77.304791,2140.03177 75,2143.05956 75,2146.63725 C75,2151.13142 78.6435386,2154.777 83.1383902,2154.777 L95.3663418,2154.777 L95.3663418,2143.01883 L90.4689155,2147.92033 L89.5089819,2146.95632 L96.0397889,2140.42552 L102.571275,2146.95632 L101.611341,2147.92033 L96.724098,2143.03241 L96.724098,2154.777 L108.295575,2154.777 C112.402108,2154.75663 115.724537,2151.42334 115.724537,2147.31613 C115.724537,2143.19534 112.395319,2139.86205 108.281318,2139.84847 C108.284034,2139.73985 108.295575,2139.63123 108.295575,2139.52261 Z" id="icon-uploads" sketch:type="MSShapeGroup"></path>
        </g>
    </g>
</svg>