<?xml version="1.0" encoding="UTF-8" standalone="no"?>
<svg width="195px" height="66px" viewBox="0 0 195 66" version="1.1" xmlns="http://www.w3.org/2000/svg" xmlns:xlink="http://www.w3.org/1999/xlink" xmlns:sketch="http://www.bohemiancoding.com/sketch/ns">
    <!-- Generator: Sketch 3.2.1 (9971) - http://www.bohemiancoding.com/sketch -->
    <title>tower-logo</title>
    <desc>Created with Sketch.</desc>
    <defs></defs>
    <g id="Galaxy-Homepage-Redesign" stroke="none" stroke-width="1" fill="none" fill-rule="evenodd" sketch:type="MSPage">
        <g id="Spacey-Round-3" sketch:type="MSArtboardGroup" transform="translate(-1068.000000, -2560.000000)">
            <g id="Footer" sketch:type="MSLayerGroup" transform="translate(0.000000, 2431.000000)">
                <g id="tower-logo" transform="translate(1068.155389, 129.000000)" sketch:type="MSShapeGroup">
                    <path d="M106.232709,41.1474518 L103.700735,41.1474518 L103.700735,28.6950232 L99.0340407,28.6950232 L99.0340407,26.4714607 L110.874763,26.4714607 L110.874763,28.6950232 L106.232709,28.6950232 L106.232709,41.1474518 Z" id="Fill-1" fill="#000000"></path>
                    <g id="Group-14">
                        <path d="M124.699536,28.4973732 C121.870071,28.4973732 119.660829,30.5971054 119.660829,33.8095161 C119.660829,37.0213286 121.870071,39.1216589 124.699536,39.1216589 C127.529602,39.1216589 129.738845,37.0213286 129.738845,33.8095161 C129.738845,30.5971054 127.529602,28.4973732 124.699536,28.4973732 M124.699536,26.2241589 C128.944335,26.2241589 132.344741,29.3127393 132.344741,33.8095161 C132.344741,38.3056946 128.944335,41.394275 124.699536,41.394275 C120.430698,41.394275 117.054331,38.3056946 117.054331,33.8095161 C117.054331,29.3127393 120.430698,26.2241589 124.699536,26.2241589" id="Fill-2" fill="#000000"></path>
                        <path d="M149.968378,26.4714009 L152.922248,38.4051777 L155.850876,26.4714009 L158.33357,26.4714009 L154.559948,41.147392 L151.333829,41.147392 L148.577685,29.8064455 L145.798102,41.147392 L142.596624,41.147392 L138.848244,26.4714009 L141.404859,26.4714009 L144.334088,38.4051777 L147.262717,26.4714009 L149.968378,26.4714009 Z" id="Fill-4" fill="#000000"></path>
                        <path d="M175.163598,38.9237696 L175.163598,41.1473321 L166.004497,41.1473321 L166.004497,26.4713411 L175.014552,26.4713411 L175.014552,28.6949036 L168.51123,28.6949036 L168.51123,32.6485018 L174.542774,32.6485018 L174.542774,34.8224125 L168.51123,34.8224125 L168.51123,38.9237696 L175.163598,38.9237696 Z" id="Fill-6" fill="#000000"></path>
                        <path d="M186.157404,33.8589286 L187.399051,33.8589286 C189.409365,33.8589286 190.699693,32.9939107 190.699693,31.0915893 C190.699693,29.4118036 189.533771,28.4229554 187.299287,28.4229554 C187.001796,28.4229554 186.430855,28.4474821 186.157404,28.4726071 L186.157404,33.8589286 Z M186.157404,41.1475714 L183.62603,41.1475714 L183.62603,26.4961071 C184.519704,26.34775 186.108123,26.2239196 187.299287,26.2239196 C191.171471,26.2239196 193.28155,27.9288304 193.28155,31.0174107 C193.28155,33.1667946 192.065144,34.7239464 190.352921,35.3658304 L194.795446,41.1475714 L191.742412,41.1475714 L187.820346,35.9341339 L186.157404,35.9341339 L186.157404,41.1475714 Z" id="Fill-8" fill="#000000"></path>
                        <path d="M67.6391189,33.0713868 C67.6391189,51.1606134 52.6293718,65.8236189 34.11104,65.8236189 C15.5951122,65.8236189 0.583562138,51.1606134 0.583562138,33.0713868 C0.583562138,14.9839214 15.5951122,0.319154624 34.11104,0.319154624 C52.6293718,0.319154624 67.6391189,14.9839214 67.6391189,33.0713868" id="Fill-10" fill="#000000"></path>
                        <path d="M67.6715724,33.0433042 C67.6715724,51.1284482 52.6578059,65.7873273 34.1359251,65.7873273 C15.6160052,65.7873273 0.600990874,51.1284482 0.600990874,33.0433042 C0.600990874,14.9602489 15.6160052,0.299107143 34.1359251,0.299107143 C52.6578059,0.299107143 67.6715724,14.9602489 67.6715724,33.0433042" id="Fill-13" fill="#69C1B9"></path>
                        <path d="M34.8189471,20.6624411 L43.4954524,41.9774143 L30.3896444,31.7018875 L34.8189471,20.6624411 Z M50.2325601,46.8881554 L36.8863558,14.9183875 C36.5053275,13.9959411 35.7432711,13.5083964 34.8189471,13.5083964 C33.8928202,13.5083964 33.0754726,13.9959411 32.6944444,14.9183875 L18.0464939,49.9851107 L23.0569548,49.9851107 L28.8559157,35.5274679 L46.1602459,49.4425304 C46.8561934,50.0018607 47.3580207,50.2549054 48.0106968,50.2549054 C49.318453,50.2549054 50.4609366,49.2798161 50.4609366,47.8716196 C50.4609366,47.6431018 50.3792019,47.2787893 50.2325601,46.8881554 L50.2325601,46.8881554 Z" id="Fill-12" fill="#FFFFFF"></path>
                    </g>
                </g>
            </g>
        </g>
    </g>
</svg>