<svg viewBox="{{view_box|default:"0 0 318 108"}}" class="main-logo">
            <path d="M110.530865,53.8061707 C110.530865,83.5241797 85.7885029,107.612055 55.2648448,107.612055 C24.7444181,107.612055 0,83.5241797 0,53.8061707 C0,24.0915938 24.7444181,0 55.2648448,0 C85.7885029,0 110.530865,24.0915938 110.530865,53.8061707" class="main-logo__background-circle" fill="#69C1B9"></path>
            <path d="M56.3016886,33.0366273 L70.6036403,67.4020347 L49.0022145,50.8353994 L56.3016886,33.0366273 Z M81.7088407,75.3188287 L59.7102445,23.7750078 C59.0821748,22.2880348 57.8257417,21.5015036 56.3016886,21.5015036 C54.7755791,21.5015036 53.427785,22.2880348 52.8005966,23.7750078 L28.655753,80.3128729 L36.9149575,80.3128729 L46.4734849,57.0020901 L74.9960154,79.4371061 C76.1434617,80.340616 76.9709979,80.7484682 78.0476468,80.7484682 C80.201826,80.7484682 82.0851537,79.1754057 82.0851537,76.9050477 C82.0851537,76.5363791 81.9511969,75.9491978 81.7088407,75.3188287 L81.7088407,75.3188287 Z" class="main-logo__letter-a" fill="#FFFFFF"></path>
            <path d="M175,54.4615482 C175,52.4939255 175.309714,50.7388809 175.929151,49.1963619 C176.548587,47.6538428 177.386636,46.3481869 178.443323,45.2793548 C179.500009,44.2105227 180.738864,43.396765 182.159925,42.8380573 C183.580985,42.2793497 185.093117,42 186.696365,42 C188.372488,42 189.823892,42.3157866 191.05062,42.9473692 C192.277348,43.5789518 193.279363,44.2955443 194.056695,45.0971684 L191.105276,48.4129605 C190.522276,47.8542528 189.908922,47.4170098 189.265193,47.1012185 C188.621465,46.7854273 187.789489,46.627534 186.76924,46.627534 C185.846158,46.627534 185.002036,46.8036457 184.236849,47.1558745 C183.471663,47.5081032 182.809725,48.0121472 182.251018,48.6680214 C181.69231,49.3238956 181.26114,50.1255077 180.957495,51.0728816 C180.653849,52.0202555 180.502029,53.0890715 180.502029,54.2793618 C180.502029,56.7328173 181.054655,58.6336095 182.159925,59.9817954 C183.265194,61.3299813 184.935219,62.0040642 187.17005,62.0040642 C187.655883,62.0040642 188.129563,61.943336 188.591104,61.8218778 C189.052645,61.7004196 189.42916,61.518235 189.720659,61.2753187 L189.720659,57.1943438 L185.785434,57.1943438 L185.785434,52.8218708 L194.457505,52.8218708 L194.457505,63.7530534 C193.607298,64.5546775 192.489899,65.2348331 191.105276,65.7935408 C189.720652,66.3522485 188.190302,66.6315981 186.514179,66.6315981 C184.910931,66.6315981 183.410945,66.3704669 182.014176,65.8481967 C180.617406,65.3259265 179.39677,64.5546785 178.352229,63.5344297 C177.307689,62.5141809 176.487858,61.2449619 175.892713,59.7267345 C175.297568,58.2085071 175,56.4534625 175,54.4615482 L175,54.4615482 Z M213.513155,56.3562865 L212.966596,54.17005 C212.626513,52.9797597 212.298581,51.7166134 211.98279,50.3805733 C211.666999,49.0445332 211.351212,47.7570957 211.035421,46.5182221 L210.889672,46.5182221 C210.598172,47.7813873 210.300604,49.0748977 209.996958,50.398792 C209.693313,51.7226863 209.371454,52.9797597 209.031371,54.17005 L208.448374,56.3562865 L213.513155,56.3562865 Z M214.606274,60.5465732 L207.355256,60.5465732 L205.897765,66.1943508 L200.432174,66.1943508 L207.865378,42.4372473 L214.314776,42.4372473 L221.74798,66.1943508 L216.063765,66.1943508 L214.606274,60.5465732 Z M228.706455,42.4372473 L234.062734,42.4372473 L234.062734,61.6761287 L243.463551,61.6761287 L243.463551,66.1943508 L228.706455,66.1943508 L228.706455,42.4372473 Z M261.790456,56.3562865 L261.243897,54.17005 C260.903814,52.9797597 260.575882,51.7166134 260.260091,50.3805733 C259.944299,49.0445332 259.628513,47.7570957 259.312722,46.5182221 L259.166972,46.5182221 C258.875473,47.7813873 258.577905,49.0748977 258.274259,50.398792 C257.970614,51.7226863 257.648754,52.9797597 257.308671,54.17005 L256.725675,56.3562865 L261.790456,56.3562865 Z M262.883575,60.5465732 L255.632557,60.5465732 L254.175066,66.1943508 L248.709474,66.1943508 L256.142679,42.4372473 L262.592076,42.4372473 L270.02528,66.1943508 L264.341066,66.1943508 L262.883575,60.5465732 Z M280.955419,53.9878636 L274.761082,42.4372473 L280.736795,42.4372473 L282.81372,46.9190322 C283.080928,47.4777399 283.348132,48.0668032 283.61534,48.68624 C283.882548,49.3056768 284.186189,49.9919053 284.526272,50.7449461 L284.672021,50.7449461 C284.939229,49.9919053 285.20036,49.3056768 285.455422,48.68624 C285.710484,48.0668032 285.95947,47.4777399 286.202386,46.9190322 L288.097124,42.4372473 L293.817777,42.4372473 L287.659877,54.2429245 L294.218587,66.1943508 L288.242874,66.1943508 L285.874451,61.3481932 C285.582951,60.7166106 285.297529,60.0911103 285.018175,59.4716735 C284.738821,58.8522368 284.429107,58.1781539 284.089024,57.4494048 L283.943275,57.4494048 C283.676067,58.1781539 283.408863,58.8522368 283.141655,59.4716735 C282.874447,60.0911103 282.607243,60.7166106 282.340035,61.3481932 L280.117361,66.1943508 L274.360272,66.1943508 L280.955419,53.9878636 Z M305.87747,57.740903 L298.699327,42.4372473 L304.456417,42.4372473 L306.569779,47.9028386 C306.909861,48.8016292 307.231721,49.6700423 307.535366,50.5081038 C307.839012,51.3461653 308.160871,52.226724 308.500954,53.1498063 L308.646703,53.1498063 C308.986786,52.226724 309.320791,51.3461653 309.648728,50.5081038 C309.976665,49.6700423 310.31067,48.8016292 310.650753,47.9028386 L312.800553,42.4372473 L318.411893,42.4372473 L311.23375,57.740903 L311.23375,66.1943508 L305.87747,66.1943508 L305.87747,57.740903 Z" class="main-logo__words" fill="#000000"></path>
</svg>
